<svg>
    <symbol id="mail" width="17" height="13" viewBox="0 0 17 13" fill="none" xmlns="http://www.w3.org/2000/svg">
        <g>
            <path d="M0.5 2.13202L7.79592 8.14281L7.79708 8.14375C8.20474 8.47757 8.79114 8.47779 9.19904 8.14443C9.19931 8.1442 9.19959 8.14398 9.19986 8.14375L16.5 2.21259V11.5358C16.5 11.5949 16.452 11.6429 16.3928 11.6429H0.607154C0.54797 11.6429 0.5 11.5949 0.5 11.5358V2.13202Z" stroke="currentColor"/>
            <path d="M8.45446 6.35264L1.38763 0.5H15.6213L8.45446 6.35264Z" stroke="currentColor"/>
        </g>
    </symbol>
    <symbol id="address" width="17" height="24" viewBox="0 0 17 24" fill="none" xmlns="http://www.w3.org/2000/svg">
        <g>
            <path d="M8.28934 0.738525C3.79725 0.738525 0.142578 4.24701 0.142578 8.55942C0.142578 13.9797 8.29735 23.2385 8.29735 23.2385C8.29735 23.2385 16.4361 13.7131 16.4361 8.55942C16.4361 4.24701 12.7816 0.738525 8.28934 0.738525ZM10.7474 10.8494C10.0696 11.4999 9.17955 11.8252 8.28934 11.8252C7.39928 11.8252 6.50893 11.4999 5.83144 10.8494C4.47603 9.54832 4.47603 7.43126 5.83144 6.13007C6.48776 5.49972 7.3608 5.15256 8.28934 5.15256C9.21789 5.15256 10.0908 5.49986 10.7474 6.13007C12.1028 7.43126 12.1028 9.54832 10.7474 10.8494Z" fill="currentColor"/>
        </g>
    </symbol>
    <symbol id="arrow" width="16" height="16" viewBox="0 0 16 16" fill="none" xmlns="http://www.w3.org/2000/svg">
        <g>
            <line x1="0.646447" y1="15.6464" x2="14.8965" y2="1.39637" stroke="currentColor"/>
            <path d="M2.7417 1H15.0918V13.3501" stroke="currentColor"/>
        </g>
    </symbol>
    <symbol id="small-arrow" width="15" height="14" viewBox="0 0 15 14" fill="none" xmlns="http://www.w3.org/2000/svg">
        <g>
            <line x1="1.29289" y1="12.9247" x2="13.2929" y2="0.924729" stroke="currentColor" stroke-width="2"/>
            <path d="M3.4668 1H13.8668V11.4" stroke="currentColor" stroke-width="2"/>
        </g>
    </symbol>
    <symbol id="small-arrow-black" width="15" height="14" viewBox="0 0 15 14" fill="none" xmlns="http://www.w3.org/2000/svg">
        <g>
            <line x1="1.29289" y1="12.9247" x2="13.2929" y2="0.924729" stroke="black" stroke-width="2"/>
            <path d="M3.4668 1H13.8668V11.4" stroke="black" stroke-width="2"/>
        </g>
    </symbol>
    <symbol id="telegram" width="20" height="18" viewBox="0 0 20 18" fill="none" xmlns="http://www.w3.org/2000/svg">
        <g>
            <path d="M16.2885 4.14311C16.2885 4.14314 16.2878 4.14317 16.2864 4.14311C16.2878 4.14305 16.2885 4.14308 16.2885 4.14311ZM8.09553 15.4951L8.09546 15.495L8.08863 15.5018C8.0837 15.5067 8.07885 15.5115 8.07409 15.5162L8.33206 11.8877L16.7016 4.37256C16.7021 4.37209 16.7026 4.37163 16.7032 4.37116C16.828 4.26028 16.9963 4.06868 17.006 3.8035C17.0186 3.45976 16.7729 3.26015 16.574 3.18977C16.3909 3.12497 16.1967 3.13607 16.0354 3.17254C15.8665 3.21071 15.6919 3.28562 15.5241 3.39582L5.18783 9.86343L0.871151 8.52077L0.870683 8.52062C0.685075 8.46309 0.57813 8.40042 0.524604 8.35633C0.536532 8.34265 0.553174 8.32562 0.576222 8.30543C0.670959 8.22244 0.839369 8.11841 1.10834 8.0139C1.10869 8.01377 1.10905 8.01363 1.10941 8.01349L18.8446 1.22346C18.8452 1.22321 18.8459 1.22297 18.8466 1.22272C19.14 1.11408 19.3011 1.1826 19.3681 1.24712C19.4386 1.31492 19.5596 1.52454 19.4657 2.01936L19.4528 2.07968L16.4353 16.2194C16.3358 16.6534 16.1885 16.7775 16.1156 16.8105C16.0462 16.8419 15.8736 16.8676 15.5277 16.6806L10.9556 13.3323L10.6176 13.0848L10.3147 13.3742L8.09553 15.4951Z" stroke="currentColor"/>
        </g>
    </symbol>
    <symbol id="viber" width="20" height="20" viewBox="0 0 20 20" fill="none" xmlns="http://www.w3.org/2000/svg">
        <g>
            <path fill-rule="evenodd" clip-rule="evenodd" d="M16.6329 3.34007C14.8788 1.58386 12.5459 0.616264 10.0606 0.615234C4.93934 0.615234 0.7714 4.78306 0.769341 9.90566C0.768654 11.5432 1.19643 13.1417 2.00954 14.5507L0.691406 19.3652L5.61683 18.0732C6.97398 18.8135 8.50189 19.2036 10.0568 19.2041H10.0607C15.1813 19.2041 19.3497 15.0359 19.3517 9.9131C19.3527 7.43042 18.3872 5.09617 16.6329 3.34007ZM10.0606 17.635H10.0574C8.67172 17.6344 7.31273 17.262 6.12689 16.5586L5.84502 16.3911L2.9222 17.1579L3.70235 14.3082L3.51867 14.016C2.74562 12.7865 2.33741 11.3654 2.3381 9.90623C2.3397 5.64846 5.80405 2.18445 10.0637 2.18445C12.1263 2.18513 14.0653 2.98943 15.5233 4.44912C16.9813 5.90881 17.7837 7.84904 17.783 9.91253C17.7812 14.1706 14.3171 17.635 10.0606 17.635ZM14.2965 11.8513C14.0644 11.735 12.923 11.1736 12.7101 11.096C12.4975 11.0185 12.3425 10.9799 12.1879 11.2122C12.0331 11.4445 11.5882 11.9675 11.4527 12.1224C11.3172 12.2773 11.182 12.2968 10.9498 12.1805C10.7176 12.0644 9.96959 11.8191 9.08279 11.0282C8.39271 10.4126 7.92682 9.6524 7.79132 9.42009C7.65605 9.18754 7.79018 9.07402 7.89317 8.9463C8.14449 8.63422 8.39614 8.30704 8.4735 8.1522C8.55098 7.99724 8.51219 7.86163 8.45405 7.74547C8.39614 7.62932 7.93186 6.48662 7.73845 6.02165C7.54985 5.56915 7.35862 5.63026 7.21603 5.62317C7.08076 5.61642 6.92592 5.61504 6.77108 5.61504C6.61636 5.61504 6.36482 5.67306 6.15196 5.90561C5.93921 6.13804 5.33954 6.6996 5.33954 7.84229C5.33954 8.98498 6.17141 10.0889 6.28745 10.2438C6.4035 10.3988 7.92453 12.7437 10.2533 13.7492C10.8072 13.9886 11.2395 14.1313 11.5768 14.2383C12.133 14.415 12.6389 14.39 13.039 14.3303C13.4851 14.2636 14.4124 13.7686 14.6061 13.2264C14.7995 12.6841 14.7995 12.2193 14.7413 12.1224C14.6834 12.0256 14.5286 11.9675 14.2965 11.8513Z" fill="currentColor"/>
        </g>
    </symbol>
    <symbol id="zzz" width="24" height="24" viewBox="0 0 24 24" fill="none" xmlns="http://www.w3.org/2000/svg">
        <g>
        </g>
    </symbol>
    <symbol id="zzz" width="24" height="24" viewBox="0 0 24 24" fill="none" xmlns="http://www.w3.org/2000/svg">
        <g>
        </g>
    </symbol>
</svg>





